HIERARCHY
ROOT joint_Root
{
	OFFSET 0.0 0.0 0.0
	CHANNELS 6 Xposition Yposition Zposition Zrotation Xrotation Yrotation 
	JOINT Hips
	{
		OFFSET -0.726466 93.3139 -2.00062
		CHANNELS 6 Xposition Yposition Zposition Zrotation Xrotation Yrotation 
		JOINT Spine
		{
			OFFSET 15.7357 0.0 0.0
			CHANNELS 6 Xposition Yposition Zposition Zrotation Xrotation Yrotation 
			JOINT Chest
			{
				OFFSET 8.98455 -0.406207 0.0
				CHANNELS 6 Xposition Yposition Zposition Zrotation Xrotation Yrotation 
				JOINT Neck
				{
					OFFSET 16.3773 0.0 0.0
					CHANNELS 6 Xposition Yposition Zposition Zrotation Xrotation Yrotation 
					JOINT Head
					{
						OFFSET 6.45672 0.0 0.0
						CHANNELS 6 Xposition Yposition Zposition Zrotation Xrotation Yrotation 
						End Site
						{
							OFFSET 0.0 0.0 0.0
						}
					}
				}
				JOINT Shoulder_L
				{
					OFFSET 12.9942 -0.242716 4.98039
					CHANNELS 6 Xposition Yposition Zposition Zrotation Xrotation Yrotation 
					JOINT UpperArm_L
					{
						OFFSET 5.34809 0.0 0.0
						CHANNELS 6 Xposition Yposition Zposition Zrotation Xrotation Yrotation 
						JOINT LowerArm_L
						{
							OFFSET 24.3286 1.87007e-05 0.0
							CHANNELS 6 Xposition Yposition Zposition Zrotation Xrotation Yrotation 
							JOINT Hand_L
							{
								OFFSET 22.2916 0.0 0.0
								CHANNELS 6 Xposition Yposition Zposition Zrotation Xrotation Yrotation 
								End Site
								{
									OFFSET 0.0 0.0 0.0
								}
							}
						}
					}
				}
				JOINT Shoulder_R
				{
					OFFSET 12.9945 -0.242716 -4.98039
					CHANNELS 6 Xposition Yposition Zposition Zrotation Xrotation Yrotation 
					JOINT UpperArm_R
					{
						OFFSET -5.34813 0.0 0.0
						CHANNELS 6 Xposition Yposition Zposition Zrotation Xrotation Yrotation 
						JOINT LowerArm_R
						{
							OFFSET -24.3289 0.000322201 0.0
							CHANNELS 6 Xposition Yposition Zposition Zrotation Xrotation Yrotation 
							JOINT Hand_R
							{
								OFFSET -22.2915 -0.000108084 0.0
								CHANNELS 6 Xposition Yposition Zposition Zrotation Xrotation Yrotation 
								End Site
								{
									OFFSET 0.0 0.0 0.0
								}
							}
						}
					}
				}
			}
		}
		JOINT UpperLeg_L
		{
			OFFSET -2.19248 -6.46944 0.0
			CHANNELS 6 Xposition Yposition Zposition Zrotation Xrotation Yrotation 
			JOINT LowerLeg_L
			{
				OFFSET 39.0811 0.0 -1.23785e-05
				CHANNELS 6 Xposition Yposition Zposition Zrotation Xrotation Yrotation 
				JOINT Foot_L
				{
					OFFSET 40.9854 0.0 -1.26872e-05
					CHANNELS 6 Xposition Yposition Zposition Zrotation Xrotation Yrotation 
					JOINT Toes_L
					{
						OFFSET 11.7543 0.0 0.0
						CHANNELS 6 Xposition Yposition Zposition Zrotation Xrotation Yrotation 
						End Site
						{
							OFFSET 0.0 0.0 0.0
						}
					}
				}
			}
		}
		JOINT UpperLeg_R
		{
			OFFSET -2.19251 6.46944 0.0
			CHANNELS 6 Xposition Yposition Zposition Zrotation Xrotation Yrotation 
			JOINT LowerLeg_R
			{
				OFFSET -39.0811 -0.00228153 -0.0401928
				CHANNELS 6 Xposition Yposition Zposition Zrotation Xrotation Yrotation 
				JOINT Foot_R
				{
					OFFSET -40.9854 0.0 0.0
					CHANNELS 6 Xposition Yposition Zposition Zrotation Xrotation Yrotation 
					JOINT Toes_R
					{
						OFFSET -11.7543 0.0 0.0
						CHANNELS 6 Xposition Yposition Zposition Zrotation Xrotation Yrotation 
						End Site
						{
							OFFSET 0.0 0.0 0.0
						}
					}
				}
			}
		}
	}
}
MOTION
Frames:	4
Frame Time:	0.0333333
0.000000 0.000000 0.000000 0.000000 0.000000 -0.000000 124.943000 86.072900 165.971000 93.377400 -53.674700 6.846020 15.735700 0.000005 -0.000001 108.223000 81.360000 -109.882000 8.984550 -0.406207 -0.000000 8.756070 5.362580 -3.729030 16.377300 -0.000001 -0.000001 7.375450 -10.961800 0.106999 6.456720 -0.000001 -0.000000 3.170700 -23.976600 4.674070 12.994200 -0.242716 4.980390 -88.973500 -1.898420 -61.593000 5.348090 -0.000007 -0.000001 -70.532300 23.703500 6.851820 24.328600 0.000019 0.000005 7.611410 14.696800 -27.776600 22.291600 -0.000001 0.000005 1.631200 5.554310 -8.911050 12.994500 -0.242716 -4.980390 89.421500 1.699750 -71.200700 -5.348130 -0.000001 -0.000004 -50.856700 31.557600 -35.272800 -24.328900 0.000322 -0.000009 -1.157100 -0.909064 -51.819200 -22.291500 -0.000108 -0.000004 5.828140 5.544170 -8.433670 -2.192480 -6.469440 -0.000000 -167.399000 0.172782 -25.701500 39.081100 -0.000007 -0.000012 -0.250628 0.379555 33.438000 40.985400 -0.000006 -0.000013 -13.322800 6.710050 -54.051300 11.754300 -0.000000 0.000003 -0.008167 -0.089400 -20.217400 -2.192510 6.469440 -0.000001 176.310000 -5.709860 -168.725000 -39.081100 -0.002282 -0.040193 0.032981 -0.041282 35.724900 -40.985400 0.000008 0.000006 14.899600 8.440380 -78.170600 -11.754300 -0.000006 -0.000006 -0.052406 -0.306237 -29.194400
0.000000 0.000000 0.000000 0.000000 0.000000 -0.000000 123.279000 86.072400 169.582000 93.503600 -56.391200 7.872780 15.735700 0.000005 -0.000001 106.445000 80.999700 -108.239000 8.984550 -0.406207 -0.000000 9.607560 5.037500 -4.010160 16.377300 -0.000001 -0.000001 7.138740 -10.767000 0.026315 6.456720 -0.000001 -0.000000 3.280980 -23.068700 5.151530 12.994200 -0.242716 4.980390 -88.974400 -1.958700 -62.355700 5.348090 -0.000007 -0.000001 -70.184900 23.664400 4.088290 24.328600 0.000019 0.000005 7.337520 14.217900 -27.666900 22.291600 -0.000001 0.000005 2.133070 5.549870 -8.700060 12.994500 -0.242716 -4.980390 89.432700 1.660490 -71.136100 -5.348130 -0.000001 -0.000004 -55.904300 30.940200 -30.591300 -24.328900 0.000322 -0.000009 -0.566742 -0.495187 -48.797100 -22.291500 -0.000108 -0.000004 6.464510 5.542740 -8.368050 -2.192480 -6.469440 -0.000000 -168.536000 -4.933690 -24.260000 39.081100 -0.000007 -0.000012 -0.166458 0.207257 38.770100 40.985400 -0.000006 -0.000013 -10.621900 10.294000 -58.819700 11.754300 -0.000000 0.000003 -0.005067 -0.062120 -19.104400 -2.192510 6.469440 -0.000001 173.915000 -5.286700 -170.320000 -39.081100 -0.002282 -0.040193 0.069844 -0.073954 41.992300 -40.985400 0.000008 0.000006 14.735800 11.870400 -72.815500 -11.754300 -0.000006 -0.000006 -0.111054 -0.471191 -36.296400
0.000000 0.000000 0.000000 0.000000 0.000000 -0.000000 121.620000 86.328700 172.834000 92.021900 -59.685600 7.584060 15.735700 0.000005 -0.000001 103.972000 80.746000 -105.588000 8.984550 -0.406207 -0.000000 10.281200 4.404060 -3.625920 16.377300 -0.000001 -0.000001 7.141440 -10.016200 -0.432311 6.456720 -0.000001 -0.000000 3.370650 -21.462600 5.186770 12.994200 -0.242716 4.980390 -88.839800 -2.266860 -62.886300 5.348090 -0.000007 -0.000001 -69.972000 24.105300 1.415790 24.328600 0.000019 0.000005 7.290650 13.779800 -28.241100 22.291600 -0.000001 0.000005 2.762220 5.545010 -8.472880 12.994500 -0.242716 -4.980390 89.544500 1.346170 -71.302700 -5.348130 -0.000001 -0.000004 -60.439500 30.808700 -26.973800 -24.328900 0.000322 -0.000009 -0.878534 -0.906174 -44.078300 -22.291500 -0.000108 -0.000004 6.708090 5.542110 -8.339090 -2.192480 -6.469440 -0.000000 -168.107000 -7.465110 -21.518200 39.081100 -0.000007 -0.000012 -0.178959 0.200639 41.731700 40.985400 -0.000006 -0.000013 -8.984140 10.543200 -63.152600 11.754300 -0.000000 0.000003 -0.002835 -0.038726 -18.151700 -2.192510 6.469440 -0.000001 172.181000 -4.798200 -174.489000 -39.081100 -0.002282 -0.040193 0.154281 -0.124611 50.475900 -40.985400 0.000008 0.000006 11.536300 15.975900 -64.549600 -11.754300 -0.000006 -0.000006 -0.104272 -0.455032 -35.585900
0.000000 0.000000 0.000000 0.000000 0.000000 -0.000000 119.926000 86.773000 175.588000 90.153400 -63.008900 6.505380 15.735700 0.000005 -0.000001 101.001000 80.683200 -102.423000 8.984550 -0.406207 -0.000000 10.585000 3.496050 -3.168180 16.377300 -0.000001 -0.000001 7.261860 -9.287880 -0.957358 6.456720 -0.000001 -0.000000 3.712010 -19.390400 5.067210 12.994200 -0.242716 4.980390 -88.699700 -2.610120 -63.507300 5.348090 -0.000007 -0.000001 -69.014700 25.074200 -1.393190 24.328600 0.000019 0.000005 7.048790 12.659900 -29.431200 22.291600 -0.000001 0.000005 3.513310 5.545210 -8.481950 12.994500 -0.242716 -4.980390 89.468600 1.555860 -71.139100 -5.348130 -0.000001 -0.000004 -63.098800 31.425400 -24.541600 -24.328900 0.000322 -0.000009 -0.706303 -0.884319 -38.570900 -22.291500 -0.000108 -0.000004 6.526260 5.545180 -8.480430 -2.192480 -6.469440 -0.000000 -167.508000 -8.190830 -18.297600 39.081100 -0.000007 -0.000012 -0.245755 0.266699 42.660200 40.985400 -0.000006 -0.000013 -8.455590 8.548570 -66.582400 11.754300 -0.000000 0.000003 -0.001040 -0.015971 -17.226300 -2.192510 6.469440 -0.000001 171.040000 -4.617790 179.717000 -39.081100 -0.002282 -0.040193 0.308674 -0.185592 58.718700 -40.985400 0.000008 0.000006 1.584800 16.255300 -53.171500 -11.754300 -0.000006 -0.000006 -0.044926 -0.279180 -28.056300
